<svg width="32" height="32" viewBox="0 0 32 32" fill="none" xmlns="http://www.w3.org/2000/svg">
<path d="M29.031 16.5257V9.39954C29.031 7.82848 27.7528 6.55029 26.1817 6.55029H5.81825C4.24719 6.55029 2.969 7.82848 2.969 9.39954V16.5257C1.25925 16.999 0 18.5677 0 20.426V25.8405C0 26.3652 0.425375 26.7905 0.95 26.7905H2.969V28.4995C2.969 29.0242 3.39437 29.4495 3.919 29.4495C4.44362 29.4495 4.869 29.0242 4.869 28.4995V26.7905H27.131V28.4995C27.131 29.0242 27.5564 29.4495 28.081 29.4495C28.6056 29.4495 29.031 29.0242 29.031 28.4995V26.7905H31.05C31.5746 26.7905 32 26.3652 32 25.8405V20.426C32 18.5677 30.7407 16.999 29.031 16.5257ZM4.869 9.39954C4.869 8.87617 5.29488 8.45029 5.81825 8.45029H26.1818C26.7052 8.45029 27.1311 8.87617 27.1311 9.39954V16.3787H24.9051V14.4717C24.9051 12.8135 23.5561 11.4645 21.8979 11.4645H18.0572C17.262 11.4645 16.5384 11.7754 16.0001 12.2813C15.4618 11.7754 14.7381 11.4645 13.9429 11.4645H10.1022C8.444 11.4645 7.095 12.8136 7.095 14.4717V16.3787H4.869V9.39954ZM23.0051 14.4717V16.3787H16.95V14.4717C16.95 13.8612 17.4468 13.3645 18.0572 13.3645H21.8979C22.5084 13.3645 23.0051 13.8612 23.0051 14.4717ZM15.0499 14.4717V16.3787H8.99481V14.4717C8.99481 13.8612 9.49156 13.3645 10.102 13.3645H13.9427C14.5532 13.3645 15.0499 13.8612 15.0499 14.4717ZM30.1 24.8905H1.9V20.426C1.9 19.242 2.86325 18.2787 4.04731 18.2787H27.9527C29.1367 18.2787 30.1 19.2419 30.1 20.426V24.8905Z" fill="#458EBC"/>
</svg>
